<svg width="200" height="61" viewBox="0 0 200 61" fill="none" xmlns="http://www.w3.org/2000/svg">
<path d="M44.6582 2.95215C39.0499 2.95215 34.4775 7.5245 34.4775 13.1328C34.4775 17.0857 36.813 20.4304 40.1176 22.1158C36.813 23.8012 34.4775 27.1459 34.4775 31.0987C34.4775 35.0516 36.813 38.3963 40.1176 40.0817C36.813 41.7671 34.4775 45.1118 34.4775 49.0647C34.4775 54.673 39.0499 59.2453 44.6582 59.2453C50.2666 59.2453 54.8389 54.673 54.8389 49.0647V40.0817V36.0768C56.4455 39.1256 59.5484 41.2794 63.223 41.2794C68.5007 41.2794 72.8048 36.9753 72.8048 31.6976C72.8048 27.3597 69.8418 23.827 65.8758 22.6538C69.8746 21.2794 72.8048 17.5886 72.8048 13.1328C72.8048 7.5245 68.2325 2.95215 62.6241 2.95215H53.6412H44.6582ZM44.6582 5.3476H52.4434V20.9181H44.6582C40.3446 20.9181 36.873 17.4465 36.873 13.1328C36.873 8.81919 40.3446 5.3476 44.6582 5.3476ZM54.8389 5.3476H62.6241C66.9378 5.3476 70.4094 8.81919 70.4094 13.1328C70.4094 17.4465 66.9378 20.9181 62.6241 20.9181H54.8389V5.3476ZM44.6582 23.3135H52.4434V38.884H44.6582C40.3446 38.884 36.873 35.4124 36.873 31.0987C36.873 26.7851 40.3446 23.3135 44.6582 23.3135ZM54.8389 23.3135H58.8438C57.1252 24.2192 55.7446 25.5998 54.8389 27.3184V23.3135ZM63.223 24.5112C67.2061 24.5112 70.4094 27.7145 70.4094 31.6976C70.4094 35.6807 67.2061 38.884 63.223 38.884C59.2399 38.884 56.0366 35.6807 56.0366 31.6976C56.0366 27.7145 59.2399 24.5112 63.223 24.5112ZM44.6582 41.2794H52.4434V49.0647C52.4434 53.3783 48.9719 56.8499 44.6582 56.8499C40.3446 56.8499 36.873 53.3783 36.873 49.0647C36.873 44.751 40.3446 41.2794 44.6582 41.2794Z" fill="#D6D6D6"/>
<g clip-path="url(#clip0_40_1197)">
<path d="M93.6895 15.3777V38.9713L96.7041 38.9828V27.7527H103.988V24.7804H96.7041V18.35H106.185V15.3777H93.6895ZM111.628 20.1658C112.721 20.1658 113.595 19.2753 113.595 18.1881C113.595 17.1009 112.709 16.2104 111.628 16.2104C110.535 16.2104 109.66 17.1009 109.66 18.1881C109.66 19.2753 110.546 20.1658 111.628 20.1658ZM110.097 23.1381V38.9713H113.112V23.1381H110.097Z" fill="#D6D6D6"/>
<path fill-rule="evenodd" clip-rule="evenodd" d="M124.307 22.6758C120.291 22.6758 117.495 26.0876 117.495 30.1355C117.495 34.1834 120.291 37.5952 124.307 37.5952C126.148 37.5952 127.655 36.8782 128.76 35.7216V37.815C128.76 40.4404 126.712 42.6262 124.031 42.6262C123.064 42.6262 122.109 42.2561 121.35 41.7241L119.831 44.3611C121.039 45.1475 122.477 45.5986 124.019 45.5986C128.299 45.5986 131.763 42.1173 131.763 37.815V23.1384H128.76V24.5494C127.655 23.3928 126.148 22.6758 124.307 22.6758ZM120.521 30.1355C120.521 27.6258 122.431 25.6481 124.64 25.6481C126.85 25.6481 128.76 27.6258 128.76 30.1355C128.76 32.6452 126.85 34.6229 124.64 34.6229C122.431 34.6229 120.521 32.6452 120.521 30.1355Z" fill="#D6D6D6"/>
<path d="M142.659 25.6481C140.876 25.6481 139.426 27.1748 139.426 28.9674V38.9715H136.411V23.1384H139.426V24.5841C140.312 23.4391 141.612 22.6758 143.315 22.6758C145.432 22.6758 147.054 23.7282 147.998 25.3474C149.045 23.7861 150.748 22.6758 152.807 22.6758C156.248 22.6758 158.388 25.4631 158.399 28.9096V38.9715H155.385V28.9558C155.385 27.1632 153.935 25.6365 152.152 25.6365C150.368 25.6365 148.918 27.1632 148.918 28.9558V38.9715H145.904V28.9558C145.892 27.1632 144.442 25.6481 142.659 25.6481Z" fill="#D6D6D6"/>
<path fill-rule="evenodd" clip-rule="evenodd" d="M174.485 24.931C173.139 23.5316 171.298 22.6758 169.17 22.6758C164.682 22.6758 161.483 26.504 161.483 31.0608C161.483 35.6176 164.671 39.4457 169.17 39.4457C171.298 39.4457 173.139 38.5783 174.485 37.1905V38.9715H177.5V23.1384H174.485V24.931ZM164.51 31.0608C164.51 28.0422 166.811 25.6481 169.503 25.6481C172.184 25.6481 174.497 28.0306 174.497 31.0608C174.497 34.0793 172.196 36.4734 169.503 36.4734C166.811 36.4618 164.51 34.0793 164.51 31.0608Z" fill="#D6D6D6"/>
</g>
<defs>
<clipPath id="clip0_40_1197">
<rect width="83.8409" height="30.2955" fill="white" transform="translate(93.6592 15.3523)"/>
</clipPath>
</defs>
</svg>
