<svg width="200" height="60" viewBox="0 0 200 60" fill="none" xmlns="http://www.w3.org/2000/svg">
<path d="M78.7737 5.4563H35.918C34.1968 5.4563 32.7998 6.85332 32.7998 8.57449V51.4256C32.7998 53.1468 34.1968 54.5438 35.918 54.5438H78.7691C80.4903 54.5438 81.8873 53.1468 81.8873 51.4302V8.57449C81.8873 6.85332 80.4903 5.4563 78.7737 5.4563ZM59.6811 43.0709C59.6811 47.7413 56.9418 49.8688 52.9425 49.8688C49.3267 49.8688 46.7198 47.4446 45.6561 45.1938L49.3312 42.9704C50.0389 44.2259 51.1163 45.1938 52.6686 45.1938C54.1523 45.1938 55.0061 44.614 55.0061 42.3587V27.6625H59.6811V43.0709ZM69.8209 49.8688C65.68 49.8688 63.3288 47.7824 62.0186 45.1938L65.5248 42.8563C66.479 44.4177 67.5199 45.9106 69.7204 45.9106C71.5694 45.9106 72.5373 44.9884 72.5373 43.71C72.5373 42.1852 71.5329 41.6419 69.5013 40.7516L68.3873 40.2723C65.1687 38.9026 63.0275 37.186 63.0275 33.552C63.0275 30.2101 65.5796 27.6625 69.5606 27.6625C72.3958 27.6625 74.432 28.6487 75.902 31.2327L72.4323 33.4652C71.6653 32.091 70.8435 31.5523 69.5606 31.5523C68.2549 31.5523 67.4286 32.3832 67.4286 33.4652C67.4286 34.8029 68.2549 35.3416 70.1678 36.1725L71.2818 36.6519C75.0757 38.2726 77.2123 39.9299 77.2123 43.6553C77.2123 47.6683 74.0576 49.8688 69.8209 49.8688Z" fill="#D6D6D6"/>
<path d="M101.611 22.9995V32.0415C101.611 34.2965 100.588 35.424 98.5415 35.424C98.1125 35.424 97.6945 35.358 97.2875 35.226V33.5265C97.7165 33.6695 98.096 33.741 98.426 33.741C99.35 33.741 99.812 33.1855 99.812 32.0745V22.9995H101.611ZM108.859 35.292V34.4175C108.32 35.1215 107.544 35.4735 106.532 35.4735C105.432 35.4735 104.618 35.1655 104.09 34.5495C103.716 34.0985 103.529 33.5485 103.529 32.8995C103.529 30.6555 105.179 29.5335 108.479 29.5335H108.727V29.2365C108.727 28.1585 108.226 27.6195 107.225 27.6195C106.323 27.6195 105.432 27.856 104.552 28.329V26.712C105.388 26.283 106.312 26.0685 107.324 26.0685C108.38 26.0685 109.15 26.316 109.634 26.811C110.151 27.35 110.41 28.186 110.41 29.319V33.1635C110.41 34.1755 110.443 34.885 110.509 35.292H108.859ZM108.727 31.068H108.38C107.522 31.068 106.862 31.145 106.4 31.299C105.663 31.541 105.295 32.0195 105.295 32.7345C105.295 33.5265 105.751 33.9225 106.664 33.9225C108.039 33.9225 108.727 33.0865 108.727 31.4145V31.068ZM119.648 26.2995L116.513 35.2095H114.88L111.86 26.2995H113.659L115.738 32.784L117.883 26.2995H119.648ZM125.882 35.292V34.4175C125.343 35.1215 124.567 35.4735 123.555 35.4735C122.455 35.4735 121.641 35.1655 121.113 34.5495C120.739 34.0985 120.552 33.5485 120.552 32.8995C120.552 30.6555 122.202 29.5335 125.502 29.5335H125.75V29.2365C125.75 28.1585 125.249 27.6195 124.248 27.6195C123.346 27.6195 122.455 27.856 121.575 28.329V26.712C122.411 26.283 123.335 26.0685 124.347 26.0685C125.403 26.0685 126.173 26.316 126.657 26.811C127.174 27.35 127.433 28.186 127.433 29.319V33.1635C127.433 34.1755 127.466 34.885 127.532 35.292H125.882ZM125.75 31.068H125.403C124.545 31.068 123.885 31.145 123.423 31.299C122.686 31.541 122.318 32.0195 122.318 32.7345C122.318 33.5265 122.774 33.9225 123.687 33.9225C125.062 33.9225 125.75 33.0865 125.75 31.4145V31.068ZM135.748 24.864C135.198 24.589 134.461 24.4515 133.537 24.4515C132.107 24.4515 131.392 24.9795 131.392 26.0355C131.392 26.5415 131.837 27.075 132.728 27.636C133.465 28.109 134.043 28.483 134.461 28.758C134.879 29.033 135.132 29.2145 135.22 29.3025C136.111 30.0835 136.556 30.9855 136.556 32.0085C136.556 33.1525 136.116 34.049 135.236 34.698C134.488 35.248 133.592 35.523 132.547 35.523C131.502 35.523 130.545 35.3305 129.676 34.9455L129.89 33.114C130.715 33.576 131.623 33.807 132.613 33.807C134.076 33.807 134.807 33.1635 134.807 31.8765C134.807 31.3705 134.362 30.8205 133.471 30.2265C132.668 29.6875 132.057 29.275 131.639 28.989C131.232 28.703 131.012 28.549 130.979 28.527C130.099 27.768 129.659 26.9375 129.659 26.0355C129.659 25.0125 130.055 24.193 130.847 23.577C131.562 23.027 132.464 22.752 133.553 22.752C134.455 22.752 135.286 22.895 136.045 23.181L135.748 24.864ZM144.838 35.127C144.222 35.325 143.435 35.424 142.478 35.424C141.125 35.424 140.058 34.951 139.277 34.005C138.573 33.158 138.221 32.0745 138.221 30.7545C138.221 29.4015 138.628 28.285 139.442 27.405C140.267 26.536 141.307 26.1015 142.561 26.1015C143.397 26.1015 144.156 26.217 144.838 26.448L144.706 28.0485C144.057 27.7845 143.38 27.6525 142.676 27.6525C141.818 27.6525 141.147 27.9385 140.663 28.5105C140.19 29.0715 139.954 29.8195 139.954 30.7545C139.954 31.6345 140.196 32.377 140.68 32.982C141.153 33.576 141.78 33.873 142.561 33.873C143.276 33.873 143.991 33.741 144.706 33.477L144.838 35.127ZM150.833 27.9C150.69 27.878 150.558 27.8615 150.437 27.8505C150.316 27.8285 150.195 27.8175 150.074 27.8175C149.436 27.8175 148.963 28.131 148.655 28.758C148.369 29.308 148.226 29.99 148.226 30.804V35.2755H146.461V28.4775C146.461 28.0595 146.45 27.669 146.428 27.306C146.417 26.932 146.4 26.5855 146.378 26.2665H148.16V27.372C148.666 26.503 149.31 26.0685 150.091 26.0685C150.333 26.0685 150.58 26.1015 150.833 26.1675V27.9ZM154.089 35.2755H152.323V26.0355H154.089V35.2755ZM154.089 24.4515H152.323V22.389H154.089V24.4515ZM158.16 37.635H156.428V26.25H158.16L158.111 27.2565C158.155 27.2015 158.21 27.1355 158.276 27.0585C158.342 26.9705 158.419 26.8825 158.507 26.7945C158.991 26.3105 159.645 26.0685 160.47 26.0685C161.68 26.0685 162.61 26.4755 163.259 27.2895C163.831 28.0375 164.117 29.0935 164.117 30.4575C164.117 31.8435 163.814 32.9435 163.209 33.7575C162.571 34.6265 161.642 35.061 160.421 35.061C159.442 35.061 158.688 34.7035 158.16 33.9885V37.635ZM160.272 27.669C159.59 27.669 159.062 27.955 158.688 28.527C158.336 29.044 158.16 29.7205 158.16 30.5565C158.16 31.3705 158.331 32.047 158.672 32.586C159.057 33.169 159.579 33.4605 160.239 33.4605C161.669 33.4605 162.384 32.476 162.384 30.507C162.384 28.615 161.68 27.669 160.272 27.669ZM170.609 35.2095C170.191 35.3855 169.718 35.4735 169.19 35.4735C168.145 35.4735 167.468 35.193 167.16 34.632C166.929 34.258 166.814 33.5375 166.814 32.4705V27.801H165.395V26.1675H166.814V24.204L168.596 23.6265V26.1675H170.345V27.801H168.596V32.9325C168.596 33.5705 168.887 33.8895 169.47 33.8895C169.855 33.8895 170.191 33.818 170.477 33.675L170.609 35.2095Z" fill="white"/>
</svg>
