<svg width="200" height="64" viewBox="0 0 200 64" fill="none" xmlns="http://www.w3.org/2000/svg">
<mask id="mask0_40_1249" style="mask-type:luminance" maskUnits="userSpaceOnUse" x="28" y="2" width="145" height="59">
<path d="M173 2H28V60.9419H173V2Z" fill="white"/>
</mask>
<g mask="url(#mask0_40_1249)">
<path d="M61.2578 60.6333V45.7844L61.5674 45.4746H64.6608L64.9703 45.7844V60.6333L64.6608 60.9432H61.5674L61.2578 60.6333Z" fill="#D6D6D6"/>
<path d="M61.2578 17.1577V2.30965L61.5674 2H64.6608L64.9703 2.30965V17.1577L64.6608 17.4674H61.5674L61.2578 17.1577Z" fill="#D6D6D6"/>
<path d="M47.8119 49.9287H47.3745L45.1875 47.7407V47.3031L50.2946 42.1973L52.6105 42.1984L52.9212 42.5068V44.8228L47.8119 49.9287Z" fill="#D6D6D6"/>
<path d="M47.809 13.0144H47.3716L45.1846 15.2025V15.64L50.2916 20.7459L52.6075 20.7449L52.9183 20.4363V18.1204L47.809 13.0144Z" fill="#D6D6D6"/>
<path d="M28.3097 29.6152H49.3453L49.655 29.9249V33.0181L49.3453 33.3279H28.3097L28 33.0181V29.9249L28.3097 29.6152Z" fill="#D6D6D6"/>
<path d="M152.893 29.6152H172.692L173.002 29.9249V33.0181L172.692 33.3279H151.657L151.347 33.0181L152.583 29.9249L152.893 29.6152Z" fill="#D6D6D6"/>
<path d="M88.0551 32.792L87.7456 33.1018H78.1495L77.84 33.4114C77.84 34.0307 78.4593 35.8874 80.9354 35.8874C81.8643 35.8874 82.7921 35.5779 83.1019 34.9585L83.4114 34.649H87.1262L87.4357 34.9585C87.1262 36.8155 85.5791 39.6022 80.9354 39.6022C75.6735 39.6022 73.1963 35.8874 73.1963 31.5544C73.1963 27.2216 75.6723 23.5068 80.6256 23.5068C85.5791 23.5068 88.0551 27.2216 88.0551 31.5544V32.7931V32.792ZM83.4114 29.6966C83.4114 29.387 83.1019 27.2205 80.6256 27.2205C78.1495 27.2205 77.84 29.387 77.84 29.6966L78.1495 30.0063H83.1019L83.4114 29.6966Z" fill="#D6D6D6"/>
<path d="M96.7224 34.6486C96.7224 35.2677 97.0319 35.5775 97.6513 35.5775H100.437L100.747 35.8871V38.9825L100.437 39.2923H97.6513C94.8654 39.2923 92.3894 38.0536 92.3894 34.6486V27.8384L92.0796 27.5287H89.9133L89.6035 27.2191V24.1237L89.9133 23.814H92.0796L92.3894 23.5044V20.7186L92.6989 20.4089H96.4137L96.7232 20.7186V23.5044L97.0331 23.814H100.438L100.748 24.1237V27.2191L100.438 27.5287H97.0331L96.7232 27.8384V34.6486H96.7224Z" fill="#D6D6D6"/>
<path d="M108.175 39.2924H104.46L104.15 38.9825V17.9339L104.46 17.6243H108.175L108.485 17.9339V38.9825L108.175 39.2924Z" fill="#D6D6D6"/>
<path d="M116.532 21.339H112.818L112.508 21.0294V17.9339L112.818 17.6243H116.532L116.842 17.9339V21.0294L116.532 21.339ZM116.532 39.2924H112.818L112.508 38.9825V24.1248L112.818 23.8151H116.532L116.842 24.1248V38.9825L116.532 39.2924Z" fill="#D6D6D6"/>
<path d="M131.08 17.9339V21.0294L130.77 21.339H127.984C127.365 21.339 127.055 21.6487 127.055 22.2679V23.5066L127.365 23.8162H130.461L130.77 24.1259V27.2213L130.461 27.5309H127.365L127.055 27.8406V38.9837L126.746 39.2932H123.031L122.721 38.9837V27.8406L122.412 27.5309H120.245L119.936 27.2213V24.1259L120.245 23.8162H122.412L122.721 23.5066V22.2679C122.721 18.8629 125.197 17.6243 127.983 17.6243H130.769L131.079 17.9339H131.08Z" fill="#D6D6D6"/>
<path d="M142.533 39.6021C141.294 42.6975 140.057 44.5545 135.722 44.5545H134.174L133.865 44.2446V41.1492L134.174 40.8397H135.722C137.27 40.8397 137.579 40.5299 137.889 39.6009V39.2914L132.937 27.2193V24.1239L133.246 23.8142H136.032L136.342 24.1239L140.057 34.6489H140.366L144.081 24.1239L144.39 23.8142H147.176L147.486 24.1239V27.2193L142.534 39.6009L142.533 39.6021Z" fill="#D6D6D6"/>
<path d="M66.3606 39.2924L66.0511 38.9826L66.0531 30.0136C66.0531 28.4664 65.4447 27.2668 63.577 27.2278C62.6167 27.2029 61.5178 27.2257 60.344 27.2755L60.1687 27.4552L60.1709 38.9826L59.8611 39.2924H56.1475L55.8379 38.9826V23.9592L56.1475 23.6495L64.5048 23.5737C68.6917 23.5737 70.3861 26.4505 70.3861 29.6975V38.9826L70.0765 39.2924H66.3606Z" fill="#D6D6D6"/>
</g>
</svg>
