<svg width="200" height="69" viewBox="0 0 200 69" fill="none" xmlns="http://www.w3.org/2000/svg">
<path d="M38.0622 45.1971C38.0622 46.3781 37.1052 47.3365 35.9228 47.3365C34.7404 47.3365 33.7834 46.3781 33.7834 45.1971V25.2292C33.7834 24.2978 34.3867 23.4734 35.2738 23.1896C36.1653 22.9072 37.1309 23.2324 37.6686 23.9926L61.5973 57.8012C68.9313 52.6266 73.7564 44.106 73.7564 34.5C73.7564 18.8109 60.9198 5.97437 45.2307 5.97437C29.5416 5.97437 16.7051 18.8109 16.7051 34.5C16.7051 50.1891 29.5416 63.0257 45.2307 63.0257C49.7834 63.0257 54.0822 61.9174 57.9104 59.9991L38.0622 31.9555V45.1971ZM52.3251 23.8029C52.3251 22.6219 53.2821 21.6635 54.4645 21.6635C55.6469 21.6635 56.6039 22.6219 56.6039 23.8029V43.5426L52.3251 37.5137V23.8029Z" fill="#D6D6D6"/>
<g clip-path="url(#clip0_40_1214)">
<path d="M157.139 24.843H173.693V27.9037H167.126V44.0056H163.842V27.9037H157.139V24.843Z" fill="#D6D6D6"/>
<path d="M129.914 24.843V27.9037H116.644V32.8274H127.316V35.8881H116.644V40.9449H129.914V44.0056H113.361V27.9037H113.359V24.843H129.914Z" fill="#D6D6D6"/>
<path d="M138.18 24.8508H133.883L149.274 44.0134H153.584L145.887 34.4387L153.571 24.8654L149.274 24.8721L143.736 31.7623L138.18 24.8508Z" fill="#D6D6D6"/>
<path d="M142.589 38.5388L140.437 35.8586L133.87 44.028H138.18L142.589 38.5388Z" fill="#D6D6D6"/>
<path fill-rule="evenodd" clip-rule="evenodd" d="M113.475 44.0056L98.0634 24.835H93.959V43.9976H97.2425V28.931L109.35 44.0056H113.475Z" fill="#D6D6D6"/>
<path d="M174.432 43.8884C174.191 43.8884 173.987 43.805 173.815 43.6381C173.644 43.4712 173.559 43.2692 173.562 43.0298C173.559 42.797 173.644 42.5972 173.815 42.4303C173.987 42.2634 174.191 42.1799 174.432 42.1799C174.663 42.1799 174.865 42.2634 175.037 42.4303C175.21 42.5972 175.297 42.797 175.299 43.0298C175.297 43.1879 175.257 43.3328 175.177 43.4624C175.095 43.5942 174.99 43.6974 174.859 43.7721C174.73 43.8489 174.587 43.8884 174.432 43.8884Z" fill="#D6D6D6"/>
<path d="M180.036 35.8157H181.491V41.431C181.489 41.947 181.378 42.3884 181.16 42.7596C180.94 43.1307 180.635 43.414 180.243 43.6138C179.854 43.8114 179.398 43.9125 178.88 43.9125C178.406 43.9125 177.981 43.8268 177.603 43.6599C177.224 43.493 176.924 43.2427 176.704 42.9133C176.481 42.5839 176.372 42.1732 176.372 41.6813H177.83C177.832 41.8965 177.881 42.0832 177.974 42.2391C178.067 42.395 178.196 42.5136 178.361 42.597C178.528 42.6805 178.719 42.7222 178.935 42.7222C179.169 42.7222 179.369 42.6739 179.531 42.5751C179.694 42.4784 179.818 42.3335 179.905 42.1403C179.99 41.9492 180.034 41.712 180.036 41.431V35.8157Z" fill="#D6D6D6"/>
<path d="M187.478 38.0119C187.442 37.6715 187.286 37.4058 187.015 37.2169C186.741 37.0259 186.388 36.9315 185.954 36.9315C185.649 36.9315 185.387 36.9776 185.168 37.0676C184.95 37.1598 184.781 37.2828 184.666 37.4387C184.55 37.5946 184.492 37.7725 184.488 37.9724C184.488 38.1393 184.528 38.2842 184.605 38.405C184.683 38.528 184.788 38.6312 184.924 38.7146C185.057 38.8003 185.206 38.8705 185.369 38.9276C185.533 38.9847 185.698 39.0331 185.862 39.0726L186.621 39.2593C186.926 39.3295 187.222 39.424 187.504 39.5447C187.787 39.6633 188.043 39.8149 188.267 39.9971C188.492 40.1794 188.67 40.399 188.801 40.6559C188.933 40.9129 189 41.2137 189 41.5607C189 42.0284 188.879 42.4391 188.637 42.7949C188.394 43.1484 188.045 43.4251 187.587 43.625C187.131 43.8226 186.579 43.9236 185.929 43.9236C185.302 43.9236 184.755 43.827 184.294 43.6338C183.831 43.4427 183.471 43.1616 183.21 42.7927C182.95 42.4237 182.81 41.9735 182.79 41.4443H184.232C184.252 41.721 184.341 41.9516 184.492 42.1383C184.646 42.3227 184.846 42.4589 185.091 42.5511C185.338 42.6411 185.613 42.6873 185.918 42.6873C186.236 42.6873 186.517 42.6389 186.759 42.5445C186.999 42.4501 187.188 42.3184 187.324 42.1471C187.462 41.9779 187.531 41.7781 187.533 41.5497C187.531 41.3411 187.469 41.1676 187.349 41.0314C187.226 40.8953 187.057 40.7811 186.841 40.6889C186.624 40.5966 186.37 40.5132 186.081 40.4407L185.16 40.2079C184.494 40.0388 183.967 39.7819 183.582 39.4371C183.195 39.0924 183.004 38.6356 183.004 38.0624C183.004 37.5925 183.133 37.1796 183.393 36.8261C183.651 36.4725 184.005 36.198 184.452 36.0025C184.901 35.8049 185.409 35.7083 185.974 35.7083C186.548 35.7083 187.05 35.8049 187.484 36.0025C187.918 36.198 188.259 36.4703 188.506 36.8173C188.753 37.1642 188.882 37.5617 188.888 38.0119H187.478Z" fill="#D6D6D6"/>
</g>
<defs>
<clipPath id="clip0_40_1214">
<rect width="95.0407" height="19.3303" fill="white" transform="translate(93.959 24.835)"/>
</clipPath>
</defs>
</svg>
