<svg width="200" height="81" viewBox="0 0 200 81" fill="none" xmlns="http://www.w3.org/2000/svg">
<path d="M54.1549 45.1489C56.7462 45.1489 58.8469 43.0482 58.8469 40.4569C58.8469 37.8656 56.7462 35.7649 54.1549 35.7649C51.5636 35.7649 49.4629 37.8656 49.4629 40.4569C49.4629 43.0482 51.5636 45.1489 54.1549 45.1489Z" fill="#D6D6D6"/>
<path fill-rule="evenodd" clip-rule="evenodd" d="M54.1545 30.9172C60.4542 30.9172 66.3064 31.8212 70.719 33.3403C76.0355 35.1706 79.3043 37.9449 79.3043 40.4571C79.3043 43.0749 75.84 46.0223 70.1308 47.9139C65.8145 49.3439 60.1345 50.0905 54.1545 50.0905C48.0234 50.0905 42.2175 49.3898 37.8526 47.8982C32.3301 46.0106 29.0039 43.0251 29.0039 40.4571C29.0039 37.9653 32.1249 35.2124 37.3667 33.3849C41.7957 31.8407 47.7925 30.9172 54.1537 30.9172H54.1545Z" stroke="#D6D6D6" stroke-width="1.3468"/>
<path fill-rule="evenodd" clip-rule="evenodd" d="M45.8492 35.7146C48.9964 30.2575 52.7029 25.6394 56.2233 22.5758C60.4648 18.8847 64.5012 17.4391 66.6773 18.694C68.9452 20.0018 69.7677 24.4753 68.5542 30.3659C67.6376 34.8195 65.4459 40.1126 62.4584 45.2929C59.3953 50.6042 55.888 55.2836 52.4156 58.3188C48.0217 62.1598 43.7736 63.5498 41.5491 62.2669C39.3904 61.0229 38.565 56.9433 39.6005 51.4894C40.4755 46.8812 42.6712 41.2251 45.8482 35.7146L45.8492 35.7146Z" stroke="#D6D6D6" stroke-width="1.3468"/>
<path fill-rule="evenodd" clip-rule="evenodd" d="M45.8576 45.307C42.7015 39.856 40.5527 34.3374 39.6558 29.7575C38.5761 24.2393 39.3394 20.0203 41.5136 18.7618C43.7792 17.4501 48.0657 18.9716 52.563 22.9649C55.9633 25.984 59.4549 30.5254 62.4511 35.7009C65.5229 41.007 67.8252 46.3827 68.7208 50.9069C69.8541 56.632 68.9368 61.0064 66.7143 62.293C64.5579 63.5414 60.6116 62.2197 56.4038 58.5986C52.8485 55.5393 49.0448 50.8121 45.8576 45.3069V45.307Z" stroke="#D6D6D6" stroke-width="1.3468"/>
<path fill-rule="evenodd" clip-rule="evenodd" d="M106.237 52.4449L100.486 43.7563C103.392 43.4998 106.011 41.3938 106.011 37.5463C106.011 33.6313 103.233 31.1257 99.3354 31.1257H90.7764V52.4287H93.4278V43.9642H97.6762L103.106 52.4287L106.237 52.4449ZM99.0181 41.649H93.4291V33.5044H99.0181C101.543 33.5044 103.267 35.1649 103.267 37.5612C103.267 39.9574 101.541 41.6517 99.0181 41.6517V41.649ZM116.106 52.827C118.631 52.827 120.706 51.9967 122.239 50.4645L121.089 48.8985C119.874 50.1445 118.087 50.8465 116.331 50.8465C113.01 50.8465 110.964 48.4192 110.773 45.514H123.26V44.9065C123.26 40.276 120.513 36.6337 115.849 36.6337C111.441 36.6337 108.248 40.2436 108.248 44.7148C108.248 49.5384 111.538 52.8148 116.105 52.8148L116.106 52.827ZM120.899 43.755H110.774C110.902 41.3925 112.529 38.6115 115.82 38.6115C119.334 38.6115 120.867 41.4546 120.899 43.755ZM139.17 52.4436V41.8393C139.17 38.1025 136.456 36.6324 133.197 36.6324C130.673 36.6324 128.694 37.4626 127.033 39.1879L128.151 40.8484C129.524 39.3796 131.027 38.7087 132.879 38.7087C135.114 38.7087 136.776 39.8899 136.776 41.9662V44.7445C135.53 43.3068 133.774 42.6358 131.665 42.6358C129.046 42.6358 126.265 44.2653 126.265 47.7145C126.265 51.0679 129.043 52.8256 131.665 52.8256C133.741 52.8256 135.499 52.0912 136.776 50.6859V52.4409L139.17 52.4436ZM132.528 51.1017C130.292 51.1017 128.726 49.6977 128.726 47.7483C128.726 45.7678 130.292 44.3625 132.528 44.3625C134.221 44.3625 135.849 45.001 136.776 46.2795V49.186C135.85 50.4631 134.221 51.1017 132.528 51.1017ZM150.753 52.827C153.564 52.827 155.224 51.6768 156.407 50.1445L154.81 48.6757C153.788 50.0487 152.478 50.6872 150.895 50.6872C147.605 50.6872 145.562 48.1317 145.562 44.7148C145.562 41.298 147.606 38.7748 150.895 38.7748C152.492 38.7748 153.801 39.3823 154.81 40.7863L156.407 39.3175C155.225 37.7839 153.564 36.6351 150.753 36.6351C146.153 36.6351 143.055 40.1491 143.055 44.7162C143.055 49.3156 146.153 52.8162 150.753 52.8162V52.827ZM163.659 52.827C165.063 52.827 165.927 52.4112 166.534 51.8374L165.832 50.0487C165.512 50.3997 164.887 50.6872 164.203 50.6872C163.15 50.6872 162.637 49.857 162.637 48.7068V39.1245H165.769V37.0171H162.637V32.8011H160.241V37.0171H157.685V39.1258H160.241V49.2198C160.241 51.5202 161.391 52.8297 163.659 52.8297V52.827Z" fill="#D6D6D6"/>
</svg>
