<svg width="200" height="64" viewBox="0 0 200 64" fill="none" xmlns="http://www.w3.org/2000/svg">
<g clip-path="url(#clip0_40_1245)">
<path d="M39.8071 23C35.5918 23 32.9574 25.1076 31.9037 29.3232C33.4845 27.2153 35.3289 26.4249 37.4365 26.952C38.639 27.2523 39.4984 28.1252 40.4499 29.0907C41.9996 30.6637 43.7935 32.4845 47.7114 32.4845C51.9267 32.4845 54.5612 30.3769 55.6151 26.1613C54.0343 28.2692 52.19 29.0596 50.0823 28.5325C48.8798 28.2322 48.0204 27.3593 47.0689 26.3938C45.5189 24.8208 43.7253 23 39.8071 23ZM31.9037 32.4845C27.6884 32.4845 25.054 34.5921 24 38.8077C25.5808 36.6998 27.4249 35.9094 29.5325 36.4365C30.7353 36.7374 31.5944 37.6097 32.5459 38.5752C34.0956 40.1483 35.8898 41.969 39.8074 41.969C44.023 41.969 46.6574 39.8614 47.7114 35.6458C46.1306 37.7537 44.2862 38.5441 42.1786 38.017C40.9761 37.7167 40.1167 36.8438 39.1652 35.8786C37.6155 34.3053 35.8216 32.4845 31.9037 32.4845Z" fill="#D6D6D6"/>
<path d="M71.4202 30.9929H68.6618V36.3324C68.6618 37.7563 69.5959 37.7339 71.4202 37.6448V39.803C67.7273 40.2479 66.2589 39.2244 66.2589 36.3324V30.9929H64.2119V28.6791H66.2589V25.6908L68.6615 24.979V28.6791H71.4202V30.9929ZM81.9366 28.6791H84.3392V39.8033H81.9366V38.2015C81.0909 39.3804 79.7785 40.0925 78.0429 40.0925C75.0175 40.0925 72.5035 37.534 72.5035 34.2415C72.5035 30.9266 75.0175 28.3904 78.0432 28.3904C79.7785 28.3904 81.0912 29.1022 81.9366 30.259V28.6791ZM78.4212 37.8011C80.4233 37.8011 81.9366 36.3103 81.9366 34.2415C81.9366 32.1727 80.4236 30.6818 78.4212 30.6818C76.4187 30.6818 74.9061 32.1724 74.9061 34.2415C74.9061 36.3106 76.419 37.8011 78.4212 37.8011ZM88.3438 27.0104C87.4981 27.0104 86.8087 26.2983 86.8087 25.4751C86.8095 25.0682 86.9715 24.6782 87.2592 24.3905C87.5469 24.1027 87.9369 23.9408 88.3438 23.94C88.7507 23.9408 89.1407 24.1027 89.4284 24.3905C89.7161 24.6782 89.8781 25.0682 89.8789 25.4751C89.8789 26.2983 89.1892 27.0104 88.3438 27.0104ZM87.1425 39.8027V28.6791H89.5451V39.8033L87.1425 39.8027ZM92.326 39.8027V23.5623H94.7288V39.803L92.326 39.8027ZM110.324 28.6788H112.861L109.368 39.8033H107.009L104.696 32.3057L102.36 39.8033H100.002L96.5087 28.6794H99.0448L101.203 36.3548L103.539 28.6794H105.83L108.144 36.3548L110.324 28.6788ZM115.842 27.0104C114.996 27.0104 114.307 26.2983 114.307 25.4751C114.308 25.0682 114.47 24.6782 114.757 24.3905C115.045 24.1027 115.435 23.9408 115.842 23.94C116.249 23.9408 116.639 24.1027 116.927 24.3905C117.214 24.6782 117.376 25.0682 117.377 25.4751C117.377 26.2983 116.687 27.0104 115.842 27.0104ZM114.641 39.8027V28.6791H117.043V39.8033L114.641 39.8027ZM125.675 28.3895C128.167 28.3895 129.947 30.0806 129.947 32.9727V39.8027H127.544V33.2177C127.544 31.5269 126.565 30.637 125.052 30.637C123.473 30.637 122.227 31.5714 122.227 33.8404V39.8033H119.824V28.6791H122.227V30.103C122.961 28.9462 124.163 28.3898 125.675 28.3898L125.675 28.3895ZM141.338 24.2295H143.741V39.8033H141.338V38.2015C140.492 39.3804 139.18 40.0925 137.445 40.0925C134.419 40.0925 131.905 37.534 131.905 34.2415C131.905 30.9266 134.419 28.3904 137.445 28.3904C139.18 28.3904 140.493 29.1022 141.338 30.259V24.2295ZM137.823 37.8011C139.825 37.8011 141.338 36.3103 141.338 34.2415C141.338 32.1727 139.825 30.6818 137.823 30.6818C135.82 30.6818 134.307 32.1724 134.307 34.2415C134.307 36.3106 135.82 37.8011 137.823 37.8011ZM151.794 40.0925C148.435 40.0925 145.921 37.534 145.921 34.2415C145.921 30.9266 148.435 28.3904 151.794 28.3904C153.974 28.3904 155.865 29.5248 156.755 31.2601L154.686 32.4614C154.197 31.4161 153.107 30.7485 151.772 30.7485C149.814 30.7485 148.323 32.239 148.323 34.2415C148.323 36.2439 149.814 37.7342 151.772 37.7342C153.107 37.7342 154.197 37.0445 154.731 36.0213L156.8 37.2002C155.865 38.9579 153.974 40.0925 151.794 40.0925H151.794ZM160.76 31.7495C160.76 33.7741 166.744 32.5504 166.744 36.6665C166.744 38.8912 164.809 40.0925 162.406 40.0925C160.181 40.0925 158.579 39.0915 157.868 37.4897L159.937 36.2881C160.293 37.2892 161.183 37.8899 162.406 37.8899C163.474 37.8899 164.297 37.5343 164.297 36.6441C164.297 34.664 158.313 35.7766 158.313 31.7941C158.313 29.7029 160.115 28.3904 162.384 28.3904C164.208 28.3904 165.721 29.2355 166.5 30.7039L164.475 31.8386C164.075 30.9711 163.296 30.5704 162.384 30.5704C161.516 30.5704 160.76 30.9487 160.76 31.7495ZM171.016 31.7495C171.016 33.7741 177.001 32.5504 177.001 36.6665C177.001 38.8912 175.065 40.0925 172.662 40.0925C170.438 40.0925 168.836 39.0915 168.124 37.4897L170.193 36.2881C170.549 37.2892 171.439 37.8899 172.662 37.8899C173.73 37.8899 174.553 37.5343 174.553 36.6441C174.553 34.664 168.569 35.7766 168.569 31.7941C168.569 29.7029 170.371 28.3904 172.64 28.3904C174.464 28.3904 175.977 29.2355 176.756 30.7039L174.731 31.8386C174.331 30.9711 173.552 30.5704 172.64 30.5704C171.772 30.5704 171.016 30.9487 171.016 31.7495Z" fill="#D6D6D6"/>
</g>
<defs>
<clipPath id="clip0_40_1245">
<rect width="153" height="18.969" fill="white" transform="translate(24 23)"/>
</clipPath>
</defs>
</svg>
