<svg width="200" height="61" viewBox="0 0 200 61" fill="none" xmlns="http://www.w3.org/2000/svg">
<path d="M65.9075 4.87646H17.101C16.4263 4.87646 15.8809 5.4231 15.8809 6.09663V54.9031C15.8809 55.5766 16.4263 56.1232 17.101 56.1232H65.9075C66.5822 56.1232 67.1276 55.5766 67.1276 54.9031V6.09663C67.1276 5.4231 66.5822 4.87646 65.9075 4.87646ZM46.3849 32.263H40.2841V51.2426H35.4034V32.263H29.3026V28.0595H46.3849V32.263ZM47.7527 50.1591V45.0857C47.7527 45.0857 50.5237 47.1746 53.8486 47.1746C57.1736 47.1746 57.0454 45.0002 57.0454 44.7025C57.0454 41.5472 47.6246 41.5472 47.6246 34.5569C47.6246 25.0506 61.3514 28.8014 61.3514 28.8014L61.1806 33.3209C61.1806 33.3209 58.8781 31.7859 56.278 31.7859C53.6778 31.7859 52.7395 33.0219 52.7395 34.3434C52.7395 37.7537 62.2458 37.4133 62.2458 44.2767C62.247 54.8482 47.7527 50.1591 47.7527 50.1591Z" fill="#D6D6D6"/>
<g clip-path="url(#clip0_40_1226)">
<path d="M93.3858 20.1079H87.7786V37.3121H85.501V20.1079H79.9053V18.0657H93.3858V20.1079Z" fill="#D6D6D6"/>
<path d="M102.235 23.5698L95.8528 39.5106C94.716 42.3544 93.1166 43.7782 91.0549 43.7782C90.4768 43.7782 89.9951 43.721 89.6059 43.6026V41.6291C90.0837 41.7894 90.5231 41.8696 90.92 41.8696C92.0414 41.8696 92.8816 41.2092 93.4404 39.8847L94.5503 37.2813L89.1318 23.5698H91.5983L95.3518 34.1435C95.3981 34.2771 95.4906 34.6283 95.637 35.1895H95.718C95.7642 34.9757 95.8528 34.636 95.9877 34.1703L99.9301 23.5698H102.235Z" fill="#D6D6D6"/>
<path d="M105.868 35.327H105.814V43.6333H103.591V23.5699H105.814V25.9862H105.868C106.963 24.1616 108.558 23.2493 110.666 23.2493C112.455 23.2493 113.85 23.8638 114.852 25.093C115.854 26.3221 116.355 27.9712 116.355 30.0401C116.355 32.3381 115.792 34.1818 114.663 35.5636C113.534 36.9455 111.988 37.6364 110.03 37.6364C108.231 37.6326 106.843 36.8653 105.868 35.327ZM105.814 29.7844V31.7044C105.814 32.842 106.188 33.8039 106.932 34.5979C107.676 35.3919 108.624 35.785 109.772 35.785C111.117 35.785 112.173 35.2735 112.936 34.2543C113.699 33.2351 114.081 31.8151 114.081 30.0019C114.081 28.4712 113.722 27.2726 113.009 26.4061C112.297 25.5396 111.329 25.1044 110.111 25.1044C108.82 25.1044 107.78 25.5511 106.994 26.4405C106.208 27.3261 105.814 28.4407 105.814 29.7844Z" fill="#D6D6D6"/>
<path d="M129.835 30.9906H120.039C120.074 32.5213 120.49 33.7008 121.284 34.533C122.078 35.3651 123.172 35.7812 124.563 35.7812C126.124 35.7812 127.562 35.2697 128.872 34.2505V36.3156C127.654 37.1936 126.039 37.6326 124.035 37.6326C122.074 37.6326 120.536 37.0104 119.415 35.7621C118.293 34.5139 117.734 32.758 117.734 30.4944C117.734 28.3567 118.347 26.6122 119.569 25.2686C120.794 23.9211 122.313 23.2493 124.128 23.2493C125.943 23.2493 127.346 23.8295 128.34 24.9937C129.334 26.158 129.831 27.7727 129.831 29.8378V30.9906H129.835ZM127.558 29.124C127.55 27.8528 127.238 26.8642 126.629 26.158C126.02 25.4518 125.172 25.0968 124.089 25.0968C123.041 25.0968 122.151 25.4671 121.419 26.2114C120.686 26.9558 120.235 27.9254 120.062 29.124H127.558Z" fill="#D6D6D6"/>
<path d="M131.777 36.5332V33.8764C132.059 34.1436 132.394 34.3879 132.787 34.6017C133.18 34.8154 133.592 34.9987 134.028 35.1437C134.463 35.2888 134.899 35.4071 135.334 35.4873C135.774 35.5674 136.178 35.6094 136.548 35.6094C137.828 35.6094 138.787 35.3537 139.419 34.8384C140.051 34.323 140.367 33.5825 140.367 32.6167C140.367 32.0976 140.263 31.6471 140.051 31.2616C139.839 30.8761 139.55 30.5249 139.177 30.2081C138.803 29.8912 138.363 29.5858 137.855 29.2957C137.346 29.0056 136.799 28.7002 136.213 28.3758C135.593 28.0361 135.015 27.6925 134.479 27.3413C133.943 26.9939 133.473 26.6084 133.08 26.1885C132.683 25.7686 132.371 25.2915 132.143 24.7609C131.916 24.2303 131.804 23.6043 131.804 22.8904C131.804 22.0125 131.982 21.2528 132.336 20.6039C132.691 19.955 133.157 19.4206 133.739 19.0007C134.317 18.5808 134.976 18.2678 135.716 18.0616C136.456 17.8555 137.211 17.7524 137.978 17.7524C139.732 17.7524 141.007 17.9815 141.809 18.4357V20.9704C140.761 20.184 139.412 19.7908 137.766 19.7908C137.311 19.7908 136.857 19.8443 136.402 19.9435C135.947 20.0466 135.542 20.2146 135.188 20.4474C134.833 20.6803 134.544 20.978 134.321 21.3483C134.097 21.7147 133.986 22.1613 133.986 22.6919C133.986 23.1844 134.07 23.6081 134.24 23.9669C134.409 24.3257 134.66 24.6502 134.991 24.9479C135.323 25.2418 135.724 25.5281 136.201 25.8068C136.676 26.0854 137.223 26.387 137.843 26.7191C138.479 27.0588 139.084 27.4177 139.654 27.7917C140.225 28.1658 140.726 28.5819 141.154 29.04C141.581 29.4981 141.924 30.0019 142.175 30.5554C142.425 31.1089 142.553 31.7464 142.553 32.4602C142.553 33.4069 142.379 34.2123 142.04 34.8689C141.697 35.5255 141.235 36.0599 140.653 36.4721C140.071 36.8844 139.4 37.1821 138.637 37.3654C137.878 37.5486 137.076 37.6402 136.232 37.6402C135.951 37.6402 135.604 37.6173 135.192 37.5677C134.779 37.518 134.356 37.4455 133.928 37.3539C133.496 37.2585 133.091 37.144 132.706 37.0065C132.317 36.8577 132.012 36.7012 131.777 36.5332Z" fill="#D6D6D6"/>
<path d="M154.38 36.6821C153.312 37.3158 152.048 37.6364 150.588 37.6364C148.611 37.6364 147.011 36.9989 145.797 35.724C144.584 34.449 143.975 32.7962 143.975 30.7654C143.975 28.5018 144.63 26.6848 145.94 25.3106C147.25 23.9364 148.996 23.2493 151.185 23.2493C152.403 23.2493 153.478 23.4745 154.411 23.9211V26.1771C153.382 25.4594 152.28 25.1044 151.104 25.1044C149.686 25.1044 148.522 25.6083 147.616 26.6161C146.711 27.6238 146.256 28.9446 146.256 30.5822C146.256 32.193 146.684 33.4642 147.536 34.3918C148.387 35.3193 149.536 35.7889 150.969 35.7889C152.179 35.7889 153.316 35.3919 154.384 34.5941V36.6821H154.38Z" fill="#D6D6D6"/>
<path d="M162.978 25.7952C162.588 25.5013 162.03 25.3524 161.297 25.3524C160.349 25.3524 159.555 25.7952 158.92 26.6808C158.284 27.5664 157.964 28.7726 157.964 30.3033V37.3079H155.74V23.5659H157.964V26.3983H158.018C158.334 25.4325 158.816 24.6767 159.467 24.1385C160.118 23.5965 160.843 23.3254 161.648 23.3254C162.226 23.3254 162.669 23.3865 162.978 23.5125V25.7952Z" fill="#D6D6D6"/>
<path d="M165.528 20.0809C165.131 20.0809 164.792 19.9473 164.511 19.6801C164.23 19.4129 164.091 19.0731 164.091 18.6609C164.091 18.2486 164.23 17.9089 164.511 17.634C164.792 17.363 165.131 17.2256 165.528 17.2256C165.933 17.2256 166.28 17.363 166.565 17.634C166.85 17.9089 166.993 18.2486 166.993 18.6609C166.993 19.054 166.85 19.39 166.565 19.6686C166.28 19.9396 165.933 20.0809 165.528 20.0809ZM166.611 37.3118H164.388V23.5698H166.611V37.3118Z" fill="#D6D6D6"/>
<path d="M170.195 35.327H170.141V43.6333H167.917V23.5699H170.141V25.9862H170.195C171.289 24.1616 172.885 23.2493 174.993 23.2493C176.781 23.2493 178.176 23.8638 179.178 25.093C180.18 26.3221 180.681 27.9712 180.681 30.0401C180.681 32.3381 180.118 34.1818 178.989 35.5636C177.86 36.9455 176.314 37.6364 174.357 37.6364C172.557 37.6326 171.17 36.8653 170.195 35.327ZM170.141 29.7844V31.7044C170.141 32.842 170.514 33.8039 171.258 34.5979C172.002 35.3919 172.95 35.785 174.098 35.785C175.443 35.785 176.499 35.2735 177.262 34.2543C178.025 33.2351 178.407 31.8151 178.407 30.0019C178.407 28.4712 178.049 27.2726 177.336 26.4061C176.623 25.5396 175.655 25.1044 174.438 25.1044C173.147 25.1044 172.106 25.5511 171.32 26.4405C170.534 27.3261 170.141 28.4407 170.141 29.7844Z" fill="#D6D6D6"/>
<path d="M189.002 37.1782C188.478 37.4644 187.788 37.6057 186.929 37.6057C184.501 37.6057 183.283 36.262 183.283 33.5785V25.4478H180.897V23.5697H183.283V20.2144L185.507 19.5044V23.5697H189.002V25.4478H185.507V33.1892C185.507 34.1091 185.665 34.7695 185.981 35.1627C186.297 35.5558 186.821 35.7543 187.553 35.7543C188.112 35.7543 188.597 35.6016 189.002 35.2963V37.1782Z" fill="#D6D6D6"/>
</g>
<defs>
<clipPath id="clip0_40_1226">
<rect width="109.097" height="26.5564" fill="white" transform="translate(79.9033 17.2217)"/>
</clipPath>
</defs>
</svg>
