<svg width="200" height="64" viewBox="0 0 200 64" fill="none" xmlns="http://www.w3.org/2000/svg">
<g clip-path="url(#clip0_40_1268)">
<path d="M99.8441 23.8962C94.4796 23.8962 90.6117 27.3948 90.6117 32.6427C90.6117 37.8906 94.9655 41.3892 100.33 41.3892C103.571 41.3892 106.428 40.1064 108.197 37.944L104.48 35.7963C103.498 36.8702 102.006 37.497 100.33 37.497C98.0024 37.497 96.0248 36.2822 95.291 34.3386H108.906C109.013 33.7943 109.076 33.2307 109.076 32.6378C109.076 27.3948 105.209 23.8962 99.8441 23.8962ZM95.2473 30.942C95.8547 29.0032 97.5165 27.7836 99.8392 27.7836C102.167 27.7836 103.829 29.0032 104.431 30.942H95.2473ZM152.167 23.8962C146.803 23.8962 142.935 27.3948 142.935 32.6427C142.935 37.8906 147.289 41.3892 152.653 41.3892C155.894 41.3892 158.752 40.1064 160.52 37.944L156.803 35.7963C155.822 36.8702 154.33 37.497 152.653 37.497C150.326 37.497 148.348 36.2822 147.614 34.3386H161.23C161.337 33.7943 161.4 33.2307 161.4 32.6378C161.4 27.3948 157.532 23.8962 152.167 23.8962ZM147.576 30.942C148.183 29.0032 149.845 27.7836 152.167 27.7836C154.495 27.7836 156.157 29.0032 156.759 30.942H147.576ZM128.61 32.6427C128.61 35.5582 130.515 37.5019 133.469 37.5019C135.471 37.5019 136.973 36.5932 137.745 35.1112L141.477 37.2638C139.932 39.8391 137.036 41.3892 133.469 41.3892C128.1 41.3892 124.237 37.8906 124.237 32.6427C124.237 27.3948 128.105 23.8962 133.469 23.8962C137.036 23.8962 139.927 25.4463 141.477 28.0217L137.745 30.1743C136.973 28.6922 135.471 27.7836 133.469 27.7836C130.52 27.7836 128.61 29.7272 128.61 32.6427ZM168.689 18.5512V40.9033H164.315V18.5512H168.689ZM49.2651 16.1216L67.2197 47.2202H31.3105L49.2651 16.1216ZM94.154 18.5512L80.6893 41.8751L67.2246 18.5512H72.2732L80.6893 33.1286L89.1053 18.5512H94.154ZM122.779 24.3821V29.0907C122.293 28.9498 121.778 28.8526 121.224 28.8526C118.401 28.8526 116.365 30.7962 116.365 33.7117V40.9033H111.992V24.3821H116.365V28.8526C116.365 26.3841 119.237 24.3821 122.779 24.3821Z" fill="#D6D6D6"/>
</g>
<defs>
<clipPath id="clip0_40_1268">
<rect width="138" height="31.5845" fill="white" transform="translate(31 16)"/>
</clipPath>
</defs>
</svg>
