<svg width="36" height="42" viewBox="0 0 36 42" fill="none" xmlns="http://www.w3.org/2000/svg">
<path d="M17.0799 1.16192C17.4251 0.350738 18.5749 0.350739 18.9201 1.16192L23.0955 10.9723C23.2699 11.3821 23.6944 11.6272 24.1365 11.5733L34.7202 10.2841C35.5953 10.1775 36.1702 11.1732 35.6403 11.8778L29.232 20.399C28.9643 20.7549 28.9643 21.2451 29.232 21.601L35.6403 30.1222C36.1702 30.8268 35.5953 31.8225 34.7202 31.7159L24.1365 30.4267C23.6944 30.3728 23.2699 30.6179 23.0955 31.0277L18.9201 40.8381C18.5749 41.6493 17.4251 41.6493 17.0799 40.8381L12.9045 31.0277C12.7301 30.6179 12.3056 30.3728 11.8635 30.4267L1.27978 31.7159C0.404657 31.8225 -0.170228 30.8268 0.359653 30.1222L6.76798 21.601C7.0357 21.2451 7.0357 20.7549 6.76798 20.399L0.359653 11.8778C-0.170228 11.1732 0.404658 10.1775 1.27978 10.2841L11.8635 11.5733C12.3056 11.6272 12.7301 11.3821 12.9045 10.9723L17.0799 1.16192Z" fill="#D6D6D6"/>
</svg>
