<svg width="42" height="42" viewBox="0 0 42 42" fill="none" xmlns="http://www.w3.org/2000/svg">
<path d="M20.1244 0.587119C20.5047 -0.102146 21.4953 -0.102144 21.8756 0.58712L23.8177 4.10745C24.112 4.6409 24.8109 4.78945 25.2967 4.42182L28.5028 1.99577C29.1305 1.52076 30.0355 1.9237 30.1026 2.70804L30.4449 6.71395C30.4968 7.32099 31.0748 7.74096 31.6682 7.60271L35.5838 6.69043C36.3505 6.5118 37.0134 7.24802 36.7556 7.99181L35.439 11.7906C35.2395 12.3663 35.5968 12.9851 36.1951 13.1001L40.1432 13.8593C40.9163 14.008 41.2224 14.9502 40.6844 15.5248L37.9365 18.4597C37.5201 18.9045 37.5948 19.615 38.0945 19.9635L41.3926 22.2629C42.0383 22.7132 41.9348 23.6984 41.2095 24.0045L37.5055 25.568C36.9442 25.805 36.7234 26.4845 37.0382 27.0061L39.1159 30.4482C39.5227 31.1221 39.0273 31.98 38.2403 31.9647L34.2205 31.8865C33.6114 31.8746 33.1333 32.4056 33.2088 33.0102L33.7068 36.9997C33.8043 37.7808 33.0028 38.3631 32.29 38.029L28.6496 36.3226C28.098 36.064 27.4452 36.3546 27.2683 36.9376L26.1005 40.7848C25.8719 41.538 24.9029 41.744 24.3876 41.1489L21.756 38.1092C21.3572 37.6486 20.6428 37.6486 20.244 38.1092L17.6124 41.1489C17.0971 41.744 16.1281 41.538 15.8995 40.7848L14.7317 36.9376C14.5547 36.3546 13.902 36.064 13.3504 36.3226L9.70998 38.029C8.9972 38.3631 8.19574 37.7808 8.29324 36.9997L8.79123 33.0102C8.8667 32.4056 8.38861 31.8746 7.77947 31.8865L3.75972 31.9647C2.97267 31.98 2.47734 31.1221 2.88413 30.4482L4.96177 27.0061C5.2766 26.4845 5.05581 25.805 4.49452 25.568L0.790466 24.0045C0.06523 23.6984 -0.0383216 22.7132 0.607419 22.2629L3.90546 19.9635C4.40523 19.615 4.47991 18.9045 4.06351 18.4597L1.31562 15.5248C0.777601 14.9502 1.08374 14.008 1.85677 13.8593L5.80495 13.1001C6.40324 12.9851 6.76048 12.3663 6.56097 11.7906L5.24439 7.99181C4.98661 7.24801 5.64949 6.5118 6.41616 6.69043L10.3318 7.60271C10.9252 7.74096 11.5032 7.32099 11.5551 6.71395L11.8974 2.70804C11.9645 1.9237 12.8695 1.52076 13.4972 1.99577L16.7033 4.42182C17.1891 4.78946 17.888 4.6409 18.1823 4.10745L20.1244 0.587119Z" fill="#D6D6D6"/>
</svg>
