<svg width="42" height="42" viewBox="0 0 42 42" fill="none" xmlns="http://www.w3.org/2000/svg">
<path d="M20.0836 1.09743C20.433 0.2979 21.567 0.297901 21.9164 1.09743L27.5323 13.9517C27.6332 14.1825 27.8175 14.3668 28.0483 14.4677L40.9026 20.0836C41.7021 20.433 41.7021 21.567 40.9026 21.9164L28.0483 27.5323C27.8175 27.6332 27.6332 27.8175 27.5323 28.0483L21.9164 40.9026C21.567 41.7021 20.433 41.7021 20.0836 40.9026L14.4677 28.0483C14.3668 27.8175 14.1825 27.6332 13.9517 27.5323L1.09743 21.9164C0.2979 21.567 0.297901 20.433 1.09743 20.0836L13.9517 14.4677C14.1825 14.3668 14.3668 14.1825 14.4677 13.9517L20.0836 1.09743Z" fill="#D6D6D6"/>
</svg>
