<svg width="40" height="40" viewBox="0 0 40 40" fill="none" xmlns="http://www.w3.org/2000/svg">
<path d="M19.0344 1.58632C19.3001 0.599644 20.6999 0.599644 20.9656 1.58633L24.5172 14.7772C24.6099 15.1213 24.8787 15.3901 25.2228 15.4828L38.4137 19.0344C39.4004 19.3001 39.4004 20.6999 38.4137 20.9656L25.2228 24.5172C24.8787 24.6099 24.6099 24.8787 24.5172 25.2228L20.9656 38.4137C20.6999 39.4004 19.3001 39.4004 19.0344 38.4137L15.4828 25.2228C15.3901 24.8787 15.1213 24.6099 14.7772 24.5172L1.58632 20.9656C0.599644 20.6999 0.599644 19.3001 1.58633 19.0344L14.7772 15.4828C15.1213 15.3901 15.3901 15.1213 15.4828 14.7772L19.0344 1.58632Z" fill="#D6D6D6"/>
</svg>
